<?xml version="1.0" encoding="UTF-8" standalone="no"?>
<!-- Created with Inkscape (http://www.inkscape.org/) -->

<svg
   xmlns:dc="http://purl.org/dc/elements/1.1/"
   xmlns:cc="http://creativecommons.org/ns#"
   xmlns:rdf="http://www.w3.org/1999/02/22-rdf-syntax-ns#"
   xmlns:svg="http://www.w3.org/2000/svg"
   xmlns="http://www.w3.org/2000/svg"
   xmlns:sodipodi="http://sodipodi.sourceforge.net/DTD/sodipodi-0.dtd"
   xmlns:inkscape="http://www.inkscape.org/namespaces/inkscape"
   width="256"
   height="96"
   id="svg2"
   version="1.1"
   inkscape:version="0.48.4 r9939"
   sodipodi:docname="Neues Dokument 1">
  <defs
     id="defs4">
    <filter
       inkscape:collect="always"
       id="filter3759">
      <feGaussianBlur
         inkscape:collect="always"
         stdDeviation="0.17818174"
         id="feGaussianBlur3761" />
    </filter>
    <filter
       inkscape:collect="always"
       id="filter3801"
       x="-0.049000013"
       width="1.098"
       y="-0.29399952"
       height="1.587999">
      <feGaussianBlur
         inkscape:collect="always"
         stdDeviation="1.2472721"
         id="feGaussianBlur3803" />
    </filter>
    <filter
       inkscape:collect="always"
       id="filter3817"
       x="-0.028000008"
       width="1.056"
       y="-0.16799973"
       height="1.3359995">
      <feGaussianBlur
         inkscape:collect="always"
         stdDeviation="0.71272694"
         id="feGaussianBlur3819" />
    </filter>
    <filter
       inkscape:collect="always"
       id="filter3831"
       x="-0.056000015"
       width="1.112"
       y="-0.33599945"
       height="1.6719989">
      <feGaussianBlur
         inkscape:collect="always"
         stdDeviation="1.4254539"
         id="feGaussianBlur3833" />
    </filter>
  </defs>
  <sodipodi:namedview
     id="base"
     pagecolor="#ffffff"
     bordercolor="#666666"
     borderopacity="1.0"
     inkscape:pageopacity="0.0"
     inkscape:pageshadow="2"
     inkscape:zoom="1.979899"
     inkscape:cx="89.422871"
     inkscape:cy="55.300947"
     inkscape:document-units="px"
     inkscape:current-layer="layer1"
     showgrid="true"
     inkscape:window-width="1366"
     inkscape:window-height="744"
     inkscape:window-x="0"
     inkscape:window-y="24"
     inkscape:window-maximized="1">
    <inkscape:grid
       type="xygrid"
       id="grid2985"
       empspacing="4"
       visible="true"
       enabled="true"
       snapvisiblegridlinesonly="true" />
  </sodipodi:namedview>
  <metadata
     id="metadata7">
    <rdf:RDF>
      <cc:Work
         rdf:about="">
        <dc:format>image/svg+xml</dc:format>
        <dc:type
           rdf:resource="http://purl.org/dc/dcmitype/StillImage" />
        <dc:title></dc:title>
      </cc:Work>
    </rdf:RDF>
  </metadata>
  <g
     inkscape:label="Ebene 1"
     inkscape:groupmode="layer"
     id="layer1"
     transform="translate(0,-956.36218)">
    <path
       transform="matrix(3.7633121,0,0,3.7633121,-353.70394,-2775.3662)"
       style="opacity:0.5;fill:#ffffff;fill-opacity:1;stroke:none;filter:url(#filter3801)"
       d="m 97.454566,1004.3622 c 25.454524,0 22.909074,-5.09093 30.545434,-5.09093 7.63636,0 5.0909,5.09093 30.54543,5.09093 -25.45453,0 -22.90907,5.0909 -30.54543,5.0909 -7.63636,0 -5.09091,-5.0909 -30.545434,-5.0909 z"
       id="path3805"
       inkscape:connector-curvature="0"
       sodipodi:nodetypes="ccccc" />
    <path
       sodipodi:nodetypes="ccccc"
       inkscape:connector-curvature="0"
       id="path3763"
       d="m 97.454566,1004.3622 c 25.454524,0 22.909074,-5.09093 30.545434,-5.09093 7.63636,0 5.0909,5.09093 30.54543,5.09093 -25.45453,0 -22.90907,5.0909 -30.54543,5.0909 -7.63636,0 -5.09091,-5.0909 -30.545434,-5.0909 z"
       style="fill:#ffffff;fill-opacity:1;stroke:none;stroke-width:0.31818160000000001px;stroke-linecap:butt;stroke-linejoin:miter;stroke-opacity:1;filter:url(#filter3801);opacity:0.50000000000000000"
       transform="matrix(2.2274859,0,0,2.2274859,-157.11819,-1232.8404)" />
    <path
       style="fill:#ffffff;fill-opacity:1;stroke:none;stroke-width:0.31818160000000001px;stroke-linecap:butt;stroke-linejoin:miter;stroke-opacity:1;filter:url(#filter3759)"
       d="m 97.454566,1004.3622 c 25.454524,0 22.909074,-5.09093 30.545434,-5.09093 7.63636,0 5.0909,5.09093 30.54543,5.09093 -25.45453,0 -22.90907,5.0909 -30.54543,5.0909 -7.63636,0 -5.09091,-5.0909 -30.545434,-5.0909 z"
       id="path3757"
       inkscape:connector-curvature="0"
       sodipodi:nodetypes="ccccc" />
    <path
       sodipodi:nodetypes="ccccc"
       inkscape:connector-curvature="0"
       id="path3807"
       d="m 97.454566,1004.3622 c 25.454524,0 22.909074,-5.09093 30.545434,-5.09093 7.63636,0 5.0909,5.09093 30.54543,5.09093 -25.45453,0 -22.90907,5.0909 -30.54543,5.0909 -7.63636,0 -5.09091,-5.0909 -30.545434,-5.0909 z"
       style="fill:#ffffff;fill-opacity:1;stroke:none;filter:url(#filter3817)"
       transform="matrix(1.8532759,0,0,1.8532759,-109.21931,-856.99801)" />
    <path
       sodipodi:nodetypes="ccccc"
       inkscape:connector-curvature="0"
       id="path3821"
       d="m 97.454566,1004.3622 c 25.454524,0 22.909074,-5.09093 30.545434,-5.09093 7.63636,0 5.0909,5.09093 30.54543,5.09093 -25.45453,0 -22.90907,5.0909 -30.54543,5.0909 -7.63636,0 -5.09091,-5.0909 -30.545434,-5.0909 z"
       style="opacity:0.4;fill:#ffffff;fill-opacity:1;stroke:none;filter:url(#filter3831)"
       transform="matrix(3.7633121,0,0,3.7633121,-353.70394,-2775.3662)" />
    <path
       transform="matrix(0.44734083,0,0,5.4247464,70.740375,-4444.0479)"
       style="opacity:0.4;fill:#ffffff;fill-opacity:1;stroke:none;filter:url(#filter3831)"
       d="m 97.454566,1004.3622 c 25.454524,0 22.909074,-5.09093 30.545434,-5.09093 7.63636,0 5.0909,5.09093 30.54543,5.09093 -25.45453,0 -22.90907,5.0909 -30.54543,5.0909 -7.63636,0 -5.09091,-5.0909 -30.545434,-5.0909 z"
       id="path3835"
       inkscape:connector-curvature="0"
       sodipodi:nodetypes="ccccc" />
  </g>
</svg>
